<svg width="26" height="26" viewBox="0 0 26 26" fill="none" xmlns="http://www.w3.org/2000/svg">
<g clip-path="url(#clip0_451_765)">
<path d="M3.73535 26H12.0527V16.9355H9.06445V13.9473H12.0527V10.2119C12.0527 8.15222 13.7284 6.47656 15.7881 6.47656H19.5234V9.46484H16.5352C15.7112 9.46484 15.041 10.1351 15.041 10.959V13.9473H19.3886L18.8906 16.9355H15.041V26H21.7646C23.8243 26 25.5 24.3243 25.5 22.2646V4.23535C25.5 2.17566 23.8243 0.5 21.7646 0.5H3.73535C1.67566 0.5 0 2.17566 0 4.23535V22.2646C0 24.3243 1.67566 26 3.73535 26ZM1.49414 4.23535C1.49414 2.99957 2.49957 1.99414 3.73535 1.99414H21.7646C23.0004 1.99414 24.0059 2.99957 24.0059 4.23535V22.2646C24.0059 23.5004 23.0004 24.5059 21.7646 24.5059H16.5352V18.4297H20.1563L21.1524 12.4531H16.5352V10.959H21.0176V4.98242H15.7881C12.9045 4.98242 10.5586 7.3283 10.5586 10.2119V12.4531H7.57031V18.4297H10.5586V24.5059H3.73535C2.49957 24.5059 1.49414 23.5004 1.49414 22.2646V4.23535Z" fill="black"/>
</g>
<defs>
<clipPath id="clip0_451_765">
<rect width="25.5" height="25.5" fill="white" transform="translate(0 0.5)"/>
</clipPath>
</defs>
</svg>
