<svg width="26" height="26" viewBox="0 0 26 26" fill="none" xmlns="http://www.w3.org/2000/svg">
<g clip-path="url(#clip0_451_767)">
<path d="M18.5973 0.5H6.90261C3.09644 0.5 0 3.59644 0 7.40261V19.0975C0 22.9035 3.09644 26 6.90261 26H18.5975C22.4035 26 25.5 22.9035 25.5 19.0975V7.40261C25.5 3.59644 22.4035 0.5 18.5973 0.5V0.5ZM24.005 19.0975C24.005 22.0792 21.5792 24.505 18.5973 24.505H6.90261C3.92075 24.505 1.49492 22.0792 1.49492 19.0975V7.40261C1.49492 4.42075 3.92075 1.99492 6.90261 1.99492H18.5975C21.5792 1.99492 24.005 4.42075 24.005 7.40261V19.0975Z" fill="black"/>
<path d="M12.7498 6.27734C8.90511 6.27734 5.77734 9.40511 5.77734 13.2498C5.77734 17.0945 8.90511 20.2222 12.7498 20.2222C16.5945 20.2222 19.7222 17.0945 19.7222 13.2498C19.7222 9.40511 16.5945 6.27734 12.7498 6.27734ZM12.7498 18.7273C9.72961 18.7273 7.27226 16.2702 7.27226 13.2498C7.27226 10.2296 9.72961 7.77226 12.7498 7.77226C15.7702 7.77226 18.2273 10.2296 18.2273 13.2498C18.2273 16.2702 15.7702 18.7273 12.7498 18.7273Z" fill="black"/>
<path d="M19.8894 3.80127C18.7532 3.80127 17.8291 4.72557 17.8291 5.86155C17.8291 6.99771 18.7532 7.92202 19.8894 7.92202C21.0255 7.92202 21.9498 6.99771 21.9498 5.86155C21.9498 4.72538 21.0255 3.80127 19.8894 3.80127ZM19.8894 6.4269C19.5777 6.4269 19.324 6.17321 19.324 5.86155C19.324 5.54968 19.5777 5.29619 19.8894 5.29619C20.2012 5.29619 20.4549 5.54968 20.4549 5.86155C20.4549 6.17321 20.2012 6.4269 19.8894 6.4269Z" fill="black"/>
</g>
<defs>
<clipPath id="clip0_451_767">
<rect width="25.5" height="25.5" fill="white" transform="translate(0 0.5)"/>
</clipPath>
</defs>
</svg>
