<svg width="29" height="31" viewBox="0 0 29 31" fill="none" xmlns="http://www.w3.org/2000/svg">
<path d="M20.8423 31C19.9062 31 18.978 30.8231 18.0703 30.4706C14.0718 28.9179 10.3602 26.3889 7.33688 23.1571C4.31351 19.9253 1.94772 15.9578 0.495223 11.6835C0.0284645 10.3099 -0.109281 8.89191 0.0859526 7.46888C0.268839 6.13593 0.751852 4.84192 1.48283 3.72669C2.21704 2.60656 3.19586 1.6749 4.31346 1.03246C5.50524 0.347404 6.80606 0 8.17989 0C8.60717 0 8.97645 0.31913 9.066 0.765705L10.4884 7.86145C10.5528 8.18276 10.4604 8.51708 10.2431 8.74945L7.81259 11.3475C10.1054 16.2205 13.8259 20.1975 18.3845 22.6485L20.815 20.0504C21.0324 19.8181 21.3452 19.7194 21.6457 19.7881L28.2837 21.3087C28.7015 21.4044 29 21.7991 29 22.2559C29 23.7244 28.675 25.115 28.0341 26.389C27.4331 27.5837 26.5615 28.63 25.5137 29.4148C24.4704 30.1962 23.2599 30.7125 22.0129 30.908C21.6221 30.9694 21.2315 30.9999 20.8423 31ZM7.45582 1.9798C5.64367 2.19364 4.03525 3.20897 2.96716 4.83853C1.76608 6.6709 1.486 8.92467 2.19874 11.022C4.99125 19.2395 11.0018 25.6645 18.6891 28.6496C20.6511 29.4115 22.7595 29.1122 24.4737 27.8282C25.9982 26.6865 26.948 24.9671 27.148 23.03L21.7481 21.7931L19.2097 24.5064C18.9396 24.7952 18.5292 24.8719 18.1836 24.6982C12.7922 21.9907 8.42808 17.3256 5.8952 11.5624C5.73282 11.1929 5.80452 10.7542 6.07463 10.4655L8.61295 7.75216L7.45582 1.9798Z" fill="black"/>
</svg>
