<svg width="91" height="83" viewBox="0 0 91 83" fill="none" xmlns="http://www.w3.org/2000/svg">
<path d="M90.9572 65.1282L90.6101 63.2545C90.3888 62.0573 89.3433 61.1884 88.1243 61.1884C87.9712 61.1884 87.817 61.2024 87.6652 61.2303L80.5985 62.5285L83.7988 60.3891C84.6375 59.8285 85.0614 58.8257 84.8785 57.831C84.8277 57.5585 84.7324 57.2971 84.5945 57.0523L83.626 55.3374C83.2942 54.7482 82.7283 54.3104 82.0751 54.137C81.7552 54.0516 81.4207 54.0326 81.0944 54.0751C81.4507 52.1083 81.6345 50.0996 81.6345 48.0547C81.6345 47.1474 81.0889 46.3666 80.3095 46.0199C81.3279 43.5977 81.3974 40.8247 80.3907 38.2852C80.3091 38.0787 80.1879 37.8944 80.031 37.7373C79.8753 37.5816 79.6931 37.4613 79.4864 37.3783C78.2801 36.8979 77.0124 36.6544 75.7183 36.6544C75.5528 36.6544 75.3881 36.6586 75.2238 36.6664C75.0392 32.9459 71.9599 29.9758 68.2009 29.9758C67.7059 29.9758 67.2231 30.0284 66.757 30.1266C67.0808 28.1893 66.8901 26.1626 66.1356 24.2597C66.0545 24.0506 65.9328 23.8629 65.7673 23.6947C65.6081 23.5355 65.4213 23.4127 65.214 23.3304C63.9146 22.8128 62.5489 22.5505 61.1548 22.5505C59.0547 22.5505 57.0458 23.1409 55.3114 24.2386C54.6778 22.4031 53.6329 20.68 52.173 19.2167C51.7454 18.7884 51.1766 18.5524 50.5715 18.5524C49.9663 18.5524 49.3975 18.7884 48.9694 19.2171L42.5153 25.6859C41.3209 24.6205 39.7492 23.9837 38.0434 23.9837C37.6563 23.9837 37.2654 24.0177 36.8817 24.0845C35.4913 24.3266 34.2118 25.0071 33.2309 26.0038C31.973 25.3969 30.5322 25.1898 29.1474 25.4308C28.8428 25.4838 28.5472 25.5584 28.2604 25.6494V20.6647C28.2604 17.232 25.5014 14.4343 22.0886 14.3753V11.5482C23.1333 11.3675 23.931 10.4569 23.931 9.3614V2.95605C23.931 1.73111 22.9344 0.734383 21.7093 0.734383H10.8691C9.64401 0.734383 8.64745 1.73111 8.64745 2.95605V9.3614C8.64745 10.4569 9.44512 11.3675 10.4898 11.5482V14.3749C7.077 14.4337 4.31822 17.2314 4.31822 20.6644V59.5696C1.65683 61.9731 0 65.3267 0 69.0353C0 76.3306 6.40286 82.2658 14.2733 82.2658L67.6266 82.2502C69.4477 82.2494 71.1603 81.4491 72.3252 80.0546C73.4598 78.6971 73.942 76.9338 73.6642 75.1948L84.3206 77.1099C84.4681 77.1364 84.6192 77.1499 84.769 77.1499C85.3004 77.1499 85.8096 76.9867 86.2408 76.6786C86.7952 76.2826 87.1704 75.6696 87.2704 74.9972L87.5591 73.0604C87.6007 72.783 87.596 72.5036 87.5454 72.2297C87.362 71.2394 86.6078 70.4536 85.6241 70.2282L81.868 69.3666L88.9278 68.0697C89.5936 67.9474 90.1712 67.5736 90.5544 67.0171C90.9369 66.4621 91.0798 65.7913 90.9572 65.1282ZM75.7183 39.32C76.5207 39.32 77.3097 39.4471 78.0683 39.6975C78.7461 41.7617 78.4923 43.9882 77.4309 45.8274H73.84L74.9858 44.6789C75.5059 44.1577 75.5048 43.3137 74.9835 42.7936C74.4622 42.2736 73.6182 42.2745 73.0985 42.7958L72.4922 43.4034C72.208 42.4677 71.7118 41.6298 71.0595 40.9425C72.3826 39.892 74.0067 39.32 75.7183 39.32ZM68.2009 32.6415C70.6083 32.6415 72.5667 34.6058 72.5667 37.0203C72.5667 37.0651 72.5646 37.1094 72.5633 37.1538C71.1582 37.6107 69.863 38.3741 68.7584 39.4108C68.5826 39.3442 68.4044 39.2823 68.2213 39.2317C67.8313 37.1252 66.4118 35.4367 64.5365 34.6481C65.3148 33.4424 66.6652 32.6415 68.2009 32.6415ZM61.1546 25.2161C62.06 25.2161 62.9497 25.3626 63.8071 25.6523C64.4962 27.7012 64.3554 29.9021 63.4774 31.8085C62.7556 32.4659 62.17 33.271 61.7697 34.176C61.5317 34.1899 61.2938 34.2162 61.0586 34.2571C60.0141 34.4389 59.0401 34.8921 58.225 35.5494C57.947 35.0411 57.6067 34.572 57.2167 34.1497L60.2736 31.086C60.7936 30.5648 60.7926 29.7208 60.2713 29.2009C59.7501 28.6809 58.9061 28.6818 58.386 29.2031L55.045 32.5517C54.4093 32.2512 53.7221 32.0422 53 31.9444C53.3119 30.3537 54.0838 28.8549 55.2778 27.658C56.8488 26.0833 58.936 25.2161 61.1546 25.2161ZM50.9402 45.8274H49.7848C49.5902 45.3322 49.1091 44.9812 48.5448 44.9812C47.9804 44.9812 47.4993 45.3324 47.3047 45.8274H45.9454C46.2611 45.3134 46.1972 44.6323 45.7517 44.1876C45.2306 43.6676 44.3865 43.6684 43.8664 44.1896L42.6101 45.4486C42.4972 45.5617 42.4105 45.6905 42.3466 45.8274H39.6335C38.6174 44.2681 37.9973 42.4277 37.9239 40.4477H59.0717C58.9983 42.4277 58.3782 44.2681 57.3621 45.8274H54.5388C54.4752 45.6905 54.3881 45.5615 54.2754 45.4484L53.0192 44.1894C52.499 43.6684 51.6553 43.667 51.1342 44.1872C50.6882 44.6319 50.6244 45.3132 50.9402 45.8274ZM47.84 37.7817C48.3425 35.9196 50.0411 34.5455 52.0541 34.5455C54.0673 34.5455 55.7659 35.9198 56.2684 37.7817H47.84ZM50.5659 21.3909C51.8339 22.7613 52.6723 24.3882 53.0834 26.0984C52.4028 26.838 51.8374 27.6552 51.3915 28.5248C51.1891 28.4008 50.9518 28.3281 50.6971 28.3281H48.9208C48.1847 28.3281 47.5878 28.9249 47.5878 29.6611C47.5878 30.3972 48.1847 30.9941 48.9208 30.9941H50.479C50.3914 31.3622 50.3233 31.7347 50.2739 32.1101C49.7446 32.2491 49.2392 32.447 48.766 32.6991C47.8775 31.1658 46.4063 30.0231 44.6631 29.5647C44.6625 29.561 44.6618 29.5573 44.6611 29.5535C44.5566 28.9503 44.3742 28.378 44.1256 27.8461L50.5659 21.3909ZM26.4692 33.4193C26.391 33.2006 26.3318 32.9763 26.2929 32.7513C25.9105 30.5473 27.3964 28.4415 29.6044 28.057C29.8372 28.0165 30.0738 27.9959 30.3073 27.9959C31.1855 27.9959 32.0248 28.276 32.7341 28.8058C33.0275 29.0251 33.3986 29.1138 33.7598 29.0513C34.121 28.9885 34.4403 28.78 34.643 28.4745C35.2688 27.5306 36.2262 26.9042 37.3388 26.7105C37.5722 26.6698 37.8093 26.6494 38.0434 26.6494C40.0183 26.6494 41.6969 28.0624 42.0342 30.0094C42.0729 30.2325 42.0928 30.465 42.0932 30.7005C42.0944 31.3904 42.6221 31.9656 43.3096 32.026C44.7999 32.157 46.0686 33.0949 46.6567 34.4162C45.8693 35.3612 45.3235 36.515 45.1163 37.7817H37.5142C36.5691 37.7817 35.7581 38.3652 35.4198 39.191C33.7474 38.0519 31.7763 37.4382 29.7107 37.4382C28.4166 37.4382 27.1488 37.6818 25.9417 38.1624C25.7369 38.2442 25.5538 38.3649 25.3978 38.5209C25.2396 38.6791 25.1182 38.8645 25.0386 39.0678C24.7318 39.8415 24.5272 40.6368 24.4167 41.4372C23.9389 40.8933 23.6023 40.217 23.4708 39.4581C23.1573 37.6495 24.1041 35.8487 25.7724 35.0788C26.3995 34.7894 26.7018 34.0692 26.4692 33.4193ZM30.4429 45.4628L30.8066 45.8274H27.6051C26.8863 44.1599 26.7772 42.2619 27.3607 40.4817C28.1203 40.2309 28.9089 40.104 29.7107 40.104C31.7192 40.104 33.6087 40.889 35.0308 42.3143C35.2199 42.5039 35.396 42.7026 35.5615 42.9079C35.7874 43.9306 36.1345 44.9076 36.5817 45.8272H34.5728L32.3303 43.5796C31.8101 43.0586 30.966 43.0572 30.4452 43.5774C29.924 44.0977 29.9229 44.9417 30.4429 45.4628ZM24.7661 45.8274H20.0141C20.2259 44.5361 21.0026 43.4354 22.0807 42.7864C22.719 43.6414 23.552 44.3328 24.5118 44.8011C24.5797 45.147 24.663 45.4899 24.7661 45.8274ZM11.3135 3.40039H21.2649V8.91706H11.3135V3.40039ZM19.4226 11.5831V14.3722H13.156V11.5831H19.4226ZM6.9844 26.0703H15.6406C16.3769 26.0703 16.9736 25.4735 16.9736 24.7373C16.9736 24.0011 16.3769 23.4043 15.6406 23.4043H6.9844V20.6644C6.9844 18.6649 8.60604 17.0382 10.5993 17.0382H21.9793C23.9727 17.0382 25.5944 18.6649 25.5944 20.6644V23.4043H23.1054C22.369 23.4043 21.7724 24.0011 21.7724 24.7373C21.7724 25.4735 22.369 26.0703 23.1054 26.0703H25.5944V27.2535C24.0671 28.7509 23.2739 30.9468 23.6656 33.2056C23.6663 33.2101 23.6672 33.2147 23.6679 33.2193C21.5294 34.6865 20.39 37.2949 20.8437 39.9135C20.8702 40.0663 20.9034 40.2167 20.9397 40.3654C20.2737 40.7326 19.6757 41.2068 19.1631 41.7617H6.9844V26.0703ZM6.98422 44.4275H17.6152C17.4737 44.8769 17.3738 45.3445 17.3251 45.8274H17.1005C15.8736 45.8274 14.8752 46.8264 14.8752 48.0544C14.8752 50.171 15.072 52.2489 15.4532 54.2818C15.0702 54.2511 14.6774 54.2345 14.2779 54.2345C12.6658 54.2345 11.1299 54.4903 9.95344 54.9549C8.15389 55.6655 7.65641 56.6745 7.54782 57.3726C7.35711 57.4675 7.16978 57.5677 6.98422 57.6703V44.4275ZM23.8638 60.803C24.3438 61.1871 24.6373 61.5136 24.8074 61.7491C24.7914 61.7493 24.7747 61.7495 24.7578 61.7495C24.0033 61.7495 22.6477 61.4454 21.1062 60.5921C20.5323 60.2741 20.0036 59.9149 19.577 59.5536C19.0797 59.1322 18.3505 59.1325 17.8535 59.5537C17.427 59.9154 16.8984 60.2745 16.325 60.5917C14.7832 61.4454 13.4276 61.7495 12.6733 61.7495C12.6561 61.7495 12.6395 61.7493 12.6234 61.7491C12.7933 61.5136 13.0867 61.1869 13.5669 60.8027C13.9866 60.4668 14.1634 59.9115 14.0154 59.3948C13.8671 58.878 13.4232 58.5007 12.8891 58.4381C11.5882 58.2856 10.7657 57.9545 10.3805 57.7135C10.8631 57.4129 12.083 56.9005 14.2784 56.9005C16.0966 56.9005 17.4255 57.2828 18.0629 57.6408C18.4683 57.8683 18.9626 57.8683 19.368 57.641C20.0057 57.283 21.3348 56.9007 23.153 56.9007C25.3486 56.9007 26.5683 57.4133 27.0507 57.7137C26.6657 57.9549 25.843 58.2858 24.5418 58.4383C24.0077 58.501 23.5636 58.8782 23.4155 59.3952C23.2669 59.9121 23.4438 60.4673 23.8638 60.803ZM21.1972 77.0276L21.2431 77.2747C21.4016 78.1308 21.7359 78.9166 22.203 79.5998H14.2733C7.87307 79.5998 2.66601 74.8607 2.66601 69.0353C2.66601 65.0542 5.09882 61.582 8.68122 59.7816C9.09268 60.0887 9.60562 60.3535 10.2142 60.5672C9.97281 60.9793 9.80468 61.4226 9.76504 61.8849C9.71243 62.4995 9.90048 63.0832 10.295 63.5286C10.8163 64.1172 11.6165 64.4156 12.6733 64.4156C14.0817 64.4156 15.9296 63.8581 17.6163 62.9243C18.0046 62.7094 18.3718 62.4824 18.7155 62.2453C19.0591 62.4823 19.4263 62.7092 19.8148 62.9245C21.5015 63.8581 23.3494 64.4155 24.7578 64.4156H24.7579C25.8144 64.4156 26.6145 64.1172 27.1357 63.5288C27.5304 63.0834 27.7186 62.4997 27.6658 61.8849C27.6262 61.4226 27.4581 60.9793 27.2167 60.5672C27.8253 60.3534 28.3384 60.0885 28.7498 59.7816C31.5909 61.2095 33.7079 63.6891 34.4627 66.64L25.0349 70.2215C22.2752 71.2701 20.6612 74.1323 21.1972 77.0276ZM70.2791 78.3454C69.6218 79.1324 68.6544 79.5838 67.6254 79.5842L66.2262 79.5847L65.3521 74.865C65.2179 74.1411 64.5228 73.6624 63.7986 73.797C63.0748 73.931 62.5966 74.6264 62.7306 75.3504L63.5151 79.5856L58.9285 79.5874L58.3375 76.3958C58.2033 75.6719 57.508 75.1938 56.784 75.3278C56.0602 75.4618 55.5819 76.1573 55.716 76.8812L56.2172 79.5884L45.5487 79.5925L44.7457 75.2579C44.6113 74.534 43.9164 74.0559 43.1921 74.1901C42.4682 74.3241 41.9901 75.0198 42.1241 75.7437L42.8374 79.5936L27.2601 79.5996C27.2597 79.5996 27.2594 79.5996 27.259 79.5996C25.5933 79.5996 24.1657 78.4177 23.8639 76.7886L23.8181 76.5415C23.5168 74.9142 24.4265 73.3045 25.9811 72.7137L31.2202 70.7234L31.6105 72.8299C31.7294 73.4717 32.2896 73.9203 32.9195 73.9203C33.0002 73.9203 33.0819 73.9128 33.164 73.8977C33.8878 73.7635 34.3659 73.0681 34.2317 72.3442L33.753 69.7612L41.5298 66.8069C42.218 66.5454 42.564 65.7755 42.3026 65.0873C42.0411 64.3989 41.2703 64.0531 40.5832 64.3145L36.9643 65.6893C35.9491 62.095 33.3411 59.0925 29.8825 57.3724C29.7739 56.6743 29.2765 55.6653 27.4771 54.9547C26.3007 54.4901 24.7647 54.2344 23.1527 54.2344C22.0432 54.2344 20.9838 54.3568 20.0485 54.5799V53.7747C20.0485 53.0386 19.4519 52.4417 18.7155 52.4417C18.4043 52.4417 18.1189 52.5491 17.8919 52.7279C17.6817 51.3375 17.564 49.9252 17.5444 48.493H60.9627C61.699 48.493 62.2957 47.8962 62.2957 47.16C62.2957 46.4238 61.699 45.827 60.9627 45.827H60.4172C61.266 44.0788 61.7456 42.1188 61.7456 40.0473C61.7456 38.8712 60.8457 37.9024 59.699 37.7924C60.1982 37.3216 60.8214 37.0041 61.5159 36.8831C61.7194 36.8477 61.926 36.8298 62.13 36.8298C63.851 36.8298 65.3134 38.0609 65.6072 39.7569C65.6411 39.9533 65.6586 40.1559 65.6587 40.3594C65.6596 41.0497 66.1875 41.6252 66.8751 41.6856C68.4682 41.8255 69.7715 43.0236 70.0447 44.5991C70.1172 45.018 70.1081 45.4314 70.0354 45.827H68.6052C67.8689 45.827 67.2722 46.4238 67.2722 47.16C67.2722 47.8962 67.8689 48.493 68.6052 48.493H78.9656C78.9326 50.9383 78.6176 53.3268 78.0302 55.6443L70.8061 59.9089C70.3642 58.3711 69.3373 57.0667 67.9223 56.2747C66.3354 55.3866 64.4494 55.2478 62.7485 55.8939L47.8703 61.5461C47.1819 61.8076 46.836 62.5775 47.0975 63.2657C47.3589 63.9541 48.1296 64.2996 48.8169 64.0385L50.7769 63.294L51.3855 66.5797C51.5044 67.2215 52.0646 67.6703 52.6947 67.6703C52.7752 67.6703 52.8569 67.6628 52.939 67.6477C53.6628 67.5137 54.1411 66.8183 54.007 66.0943L53.3102 62.3317L63.6949 58.3866C64.6572 58.0211 65.7232 58.0995 66.6203 58.6016C67.5157 59.1027 68.136 59.9664 68.3222 60.971L71.019 75.53C71.2049 76.5341 70.9353 77.5601 70.2791 78.3454ZM75.0352 67.9113C74.4134 68.0256 73.9575 68.5609 73.9434 69.1931C73.9296 69.8253 74.3618 70.3802 74.978 70.5215L84.9027 72.7979L84.6547 74.4613L73.1493 72.3938L71.3508 62.6835L81.3722 56.7678L82.207 58.246L73.7543 63.8963C73.2288 64.2477 73.0222 64.9199 73.26 65.5057C73.4977 66.0915 74.1144 66.4299 74.7361 66.3156L88.0139 63.8766L88.3096 65.4726L75.0352 67.9113Z" fill="black"/>
</svg>
