<svg width="58" height="82" viewBox="0 0 58 82" fill="none" xmlns="http://www.w3.org/2000/svg">
<path d="M45.8183 56.7478H43.416V63.5599H45.326L29.6964 79.5976H28.3075L20.2001 71.2785L18.4795 72.9551L27.294 82H30.7098L51.0215 61.1575H45.8183V56.7478Z" fill="black"/>
<path d="M12.6759 63.5601H14.586V56.748H12.1836V61.1578H6.98047L16.8011 71.235L18.5215 69.5583L12.6759 63.5601Z" fill="black"/>
<path d="M29.002 57.1758C31.4852 57.1758 33.9533 56.8554 36.3374 56.2239L35.7223 53.9017C33.5387 54.48 31.2776 54.7734 29.002 54.7734C14.5632 54.7734 2.81641 43.0266 2.81641 28.5879C2.81641 22.0215 5.25831 15.7408 9.69239 10.9026L7.92123 9.27942C3.08018 14.5617 0.414062 21.4189 0.414062 28.5879C0.414062 44.3512 13.2386 57.1758 29.002 57.1758Z" fill="black"/>
<path d="M29.0037 0C21.8352 0 14.9781 2.66612 9.69531 7.50716L11.3183 9.27833C16.157 4.84425 22.4377 2.40234 29.0037 2.40234C43.4425 2.40234 55.1893 14.1492 55.1893 28.5879C55.1893 39.5799 48.2476 49.4777 37.916 53.217L38.7334 55.4759C44.2045 53.4957 48.891 49.9353 52.2861 45.1796C55.757 40.3181 57.5916 34.5808 57.5916 28.5879C57.5916 12.8245 44.7671 0 29.0037 0V0Z" fill="black"/>
<path d="M18.0938 40.2746L24.3352 43.8783L34.741 25.8547L32.6606 24.6535L23.4559 40.5966L21.3753 39.3954L34.5484 16.5792L36.6288 17.7804L33.8621 22.5726L35.9425 23.7737L39.9104 16.9011L33.6691 13.2976L18.0938 40.2746Z" fill="black"/>
<path d="M32.72 35.9151C32.0784 37.0264 31.9078 38.3213 32.24 39.561C32.5721 40.8006 33.3672 41.8367 34.4786 42.4784C35.2333 42.9142 36.0583 43.1213 36.8728 43.1212C38.5344 43.1212 40.153 42.2594 41.0419 40.7198C42.3665 38.4252 41.5776 35.4811 39.2833 34.1564C36.9886 32.8317 34.0446 33.6208 32.72 35.9151ZM38.0822 36.2368C39.2294 36.8991 39.6237 38.3714 38.9614 39.5186C38.299 40.6656 36.827 41.0603 35.6798 40.3979C35.1241 40.0771 34.7266 39.559 34.5605 38.9391C34.3944 38.3193 34.4796 37.6718 34.8006 37.1162C35.245 36.3464 36.0543 35.9156 36.8852 35.9156C37.2923 35.9156 37.7048 36.019 38.0822 36.2368Z" fill="black"/>
<path d="M23.5225 14.6974C21.2278 13.3728 18.2838 14.1617 16.9592 16.4561C15.6345 18.7505 16.4234 21.6948 18.7178 23.0193C19.4582 23.4468 20.2798 23.6651 21.1125 23.6651C21.5297 23.6651 21.95 23.6101 22.3638 23.4993C23.6034 23.1672 24.6395 22.3721 25.2812 21.2607C26.6057 18.9663 25.8169 16.0221 23.5225 14.6974ZM23.2008 20.0596C22.5385 21.207 21.0662 21.6013 19.919 20.9389C18.7718 20.2767 18.3773 18.8045 19.0396 17.6573C19.484 16.8874 20.2933 16.4566 21.1242 16.4566C21.5315 16.4566 21.944 16.5601 22.3214 16.7779C23.4686 17.4403 23.863 18.9123 23.2008 20.0596Z" fill="black"/>
<path d="M50.1247 39.5302C52.2845 35.3656 53.1567 30.6835 52.6466 25.9902L50.2584 26.2497C50.7172 30.4711 49.9334 34.6811 47.9922 38.4241L50.1247 39.5302Z" fill="black"/>
<path d="M45.4844 42.2051L47.3356 43.7363C47.8702 43.09 48.3758 42.4083 48.838 41.7105L46.8355 40.3838C46.4198 41.011 45.9652 41.6239 45.4844 42.2051Z" fill="black"/>
<path d="M38.6094 61.1572H41.0117V63.5596H38.6094V61.1572Z" fill="black"/>
</svg>
