<svg width="85" height="85" viewBox="0 0 85 85" fill="none" xmlns="http://www.w3.org/2000/svg">
<g clip-path="url(#clip0_0_2965)">
<path d="M42.5 34.1992C43.4169 34.1992 44.1602 33.4559 44.1602 32.5391C44.1602 31.6222 43.4169 30.8789 42.5 30.8789C41.5831 30.8789 40.8398 31.6222 40.8398 32.5391C40.8398 33.4559 41.5831 34.1992 42.5 34.1992Z" fill="black"/>
<path d="M30.0469 49.1405H54.9492C55.866 49.1405 56.6094 48.3973 56.6094 47.4804V31.8796L58.8495 33.7997C59.5484 34.3988 60.5961 34.3127 61.1903 33.6194C61.7869 32.9233 61.7062 31.8752 61.01 31.2784L43.5785 16.3372C42.9569 15.8043 42.0394 15.8043 41.4177 16.3372L23.9862 31.2784C23.2899 31.8751 23.2092 32.9231 23.8059 33.6194C24.4024 34.3157 25.4506 34.3962 26.1467 33.7997L28.3868 31.8796V47.4804C28.3868 48.3973 29.1302 49.1405 30.0469 49.1405ZM31.7071 29.0336L42.4981 19.7842L53.2891 29.0336V45.8202H44.1582V39.1796C44.1582 38.2627 43.4148 37.5194 42.4981 37.5194C41.5813 37.5194 40.8379 38.2627 40.8379 39.1796V45.8202H31.7071V29.0336Z" fill="black"/>
<path d="M41.307 84.4943C41.6198 84.8176 42.0503 85 42.5 85C42.9497 85 43.3802 84.8176 43.693 84.4943C54.2888 73.5574 74.043 48.9532 74.043 32.5391C74.043 26.7458 72.468 21.0026 69.4878 15.9305C69.0232 15.14 68.006 14.8757 67.2154 15.34C66.4248 15.8045 66.1605 16.8219 66.6249 17.6124C69.3057 22.1752 70.7227 27.3368 70.7227 32.5391C70.7227 49.3347 48.0139 74.9441 42.5 80.9134C36.9861 74.9441 14.2773 49.3347 14.2773 32.5391C14.2773 16.7008 27.2018 3.32031 42.5 3.32031C47.5431 3.32031 52.5157 4.77145 56.8803 7.51702C57.6561 8.00527 58.6814 7.77186 59.1695 6.99573C59.6575 6.21961 59.4241 5.19463 58.648 4.70654C53.7534 1.62745 48.1694 0 42.5 0C24.8107 0 10.957 15.3996 10.957 32.5391C10.957 48.9361 30.6784 73.5233 41.307 84.4943Z" fill="black"/>
<path d="M63.582 12.4512C64.4989 12.4512 65.2422 11.7079 65.2422 10.791C65.2422 9.87414 64.4989 9.13086 63.582 9.13086C62.6652 9.13086 61.9219 9.87414 61.9219 10.791C61.9219 11.7079 62.6652 12.4512 63.582 12.4512Z" fill="black"/>
</g>
<defs>
<clipPath id="clip0_0_2965">
<rect width="85" height="85" fill="white"/>
</clipPath>
</defs>
</svg>
