<svg width="160" height="32" viewBox="0 0 160 32" fill="none" xmlns="http://www.w3.org/2000/svg">
<rect x="20" y="12" width="140" height="20" fill="#FADF00"/>
<path d="M7.5 22V14.86C8.25 14.95 9.39 14.95 9.84 14.95C14.7 14.95 17.61 11.65 17.61 7.9C17.61 4.27 15.51 0.939999 9.12 0.939999C7.5 0.939999 3.87 0.999999 2.7 0.999999V22H7.5ZM9.6 5.44C11.31 5.44 12.51 6.01 12.51 7.87C12.51 9.91 10.95 10.45 9.69 10.45C9 10.45 8.19 10.39 7.5 10.3V5.5C8.49 5.47 8.97 5.44 9.6 5.44ZM21.5086 22H34.2586V17.5H26.3086V13.69H33.0586V9.19H26.3086V5.5H33.9586V0.999999H21.5086V22ZM38.7645 22H53.9145V25.6H58.4145V17.5H55.5645V0.999999H50.7645V17.5H43.5645V0.999999H38.7645V22ZM61.7039 22H74.4539V17.5H66.5039V13.69H73.2539V9.19H66.5039V5.5H74.1539V0.999999H61.7039V22ZM91.1098 22H95.9098V0.999999H78.9598V22H83.7598V5.5H91.1098V22ZM98.9133 5.5H105.213V22H110.013V5.5H116.313V0.999999H98.9133V5.5ZM135.652 22H140.452V0.999999H135.652V22ZM125.542 11.95C127.312 11.95 128.512 12.79 128.512 14.65C128.512 16.63 127.462 17.56 125.512 17.56C125.062 17.56 124.642 17.5 124.102 17.44V12.1C124.702 12.01 125.152 11.95 125.542 11.95ZM124.102 0.999999H119.302V22C120.532 22 122.782 22.06 124.942 22.06C130.492 22.06 133.612 19.03 133.612 14.53C133.612 10.24 131.122 7.45 125.962 7.45C125.512 7.45 124.852 7.48 124.102 7.57V0.999999Z" fill="black"/>
</svg>
