<svg width="17" height="17" viewBox="0 0 17 17" fill="none" xmlns="http://www.w3.org/2000/svg">
<path d="M0.293867 7.9304L4.45107 10.0023C4.61187 10.0816 4.8017 10.0759 4.95541 9.98598L8.65574 7.83477L6.41599 9.81952C6.30195 9.92081 6.23678 10.0653 6.23678 10.2176V15.052C6.23678 15.562 6.88774 15.7766 7.19303 15.3714L8.99008 12.9822L13.4342 15.5131C13.7458 15.6923 14.1453 15.5124 14.2176 15.1561L16.9893 1.34361C17.0722 0.928523 16.6592 0.58994 16.2753 0.744357L0.337783 6.95998C-0.0900498 7.12715 -0.117675 7.72569 0.293867 7.9304ZM15.7568 2.08736L13.3208 14.2261L9.10978 11.8276C8.88028 11.6966 8.58491 11.7547 8.42199 11.97L7.29928 13.4625V10.4563L13.3562 5.08998C13.8358 4.66569 13.2847 3.91131 12.7372 4.2329L4.66924 8.92348L1.84158 7.5146L15.7568 2.08736Z" fill="black"/>
</svg>
