<svg width="15" height="23" viewBox="0 0 15 23" fill="none" xmlns="http://www.w3.org/2000/svg">
<path d="M4.93538 11.0217L14.2878 19.2719C14.5453 19.4986 14.687 19.8016 14.687 20.1246C14.687 20.4479 14.5453 20.7507 14.2878 20.9777L13.4683 21.7002C13.2112 21.9276 12.8675 22.0527 12.5012 22.0527C12.135 22.0527 11.7917 21.9276 11.5344 21.7002L0.398786 11.8776C0.140453 11.6499 -0.00101082 11.3457 5.4454e-06 11.0222C-0.00101082 10.6974 0.140249 10.3935 0.398786 10.1656L11.524 0.352486C11.7813 0.125147 12.1246 0 12.4911 0C12.8573 0 13.2006 0.125147 13.4581 0.352486L14.2775 1.07503C14.8106 1.54531 14.8106 2.31088 14.2775 2.78098L4.93538 11.0217Z" fill="black"/>
</svg>
