<svg width="16" height="23" viewBox="0 0 16 23" fill="none" xmlns="http://www.w3.org/2000/svg">
<path d="M10.8032 11.0217L1.25144 19.2719C0.988436 19.4986 0.84375 19.8016 0.84375 20.1246C0.84375 20.4479 0.988436 20.7507 1.25144 20.9777L2.08842 21.7002C2.35101 21.9276 2.70204 22.0527 3.0761 22.0527C3.45017 22.0527 3.80078 21.9276 4.06358 21.7002L15.4365 11.8776C15.7003 11.6499 15.8448 11.3457 15.8437 11.0222C15.8448 10.6974 15.7005 10.3935 15.4365 10.1656L4.07417 0.352486C3.81137 0.125147 3.46076 0 3.08648 0C2.71242 0 2.36181 0.125147 2.0988 0.352486L1.26203 1.07503C0.717539 1.54531 0.717539 2.31088 1.26203 2.78098L10.8032 11.0217Z" fill="black"/>
</svg>
